<svg width="484" height="85" viewBox="0 0 484 85" fill="none" xmlns="http://www.w3.org/2000/svg">
<path d="M80.28 4.75C79.92 8.71 79.74 12.64 79.74 16.54V56.59C79.74 61.45 79.62 65.53 79.38 68.83C79.2 72.07 78.96 74.71 78.66 76.75C78.36 79.15 78 81.01 77.58 82.33H68.04C67.98 81.31 67.92 79.99 67.86 78.37C67.8 76.99 67.77 75.22 67.77 73.06C67.77 70.96 67.77 68.38 67.77 65.32V42.19H60.57V55.6C60.51 60.46 60.39 64.51 60.21 67.75C60.03 70.93 59.82 73.48 59.58 75.4C59.34 77.68 59.01 79.42 58.59 80.62H49.23C49.17 79.6 49.11 78.28 49.05 76.66C48.99 75.28 48.96 73.51 48.96 71.35C48.96 69.19 48.96 66.58 48.96 63.52V16.9C48.96 14.8 48.36 13.3 47.16 12.4C46.02 11.5 44.34 10.9 42.12 10.6L42.84 7.63L60.57 9.7V39.58H67.77V13.57C67.77 11.05 67.11 9.16 65.79 7.89999C64.47 6.58 62.4 5.74 59.58 5.38L60.3 2.41L80.28 4.75ZM32.31 45.79C33.33 46.63 34.68 47.26 36.36 47.68C38.04 48.04 39.72 48.07 41.4 47.77L46.8 61.45L40.32 64.78L27.27 43.72C24.03 48.82 20.25 53.26 15.93 57.04C11.61 60.76 6.9 64.15 1.8 67.21L0.18 65.41C3.06 63.01 5.7 60.31 8.1 57.31C10.5 54.25 12.57 51.13 14.31 47.95C16.11 44.71 17.58 41.47 18.72 38.23C19.86 34.93 20.64 31.81 21.06 28.87C21.3 27.13 21.27 25.63 20.97 24.37C20.67 23.05 20.01 21.97 18.99 21.13C17.97 21.61 17.07 22.27 16.29 23.11C15.57 23.95 15.03 24.82 14.67 25.72C12.27 24.76 10.02 23.77 7.92 22.75C5.82 21.73 3.72 20.53 1.62 19.15L2.97 16.45C4.05 16.81 5.07 17.11 6.03 17.35C6.99 17.53 7.95 17.71 8.91 17.89C9.93 18.01 10.98 18.1 12.06 18.16C13.14 18.16 14.34 18.16 15.66 18.16C17.76 18.16 19.62 18.13 21.24 18.07C22.86 18.01 24.27 17.92 25.47 17.8C29.79 17.44 32.34 15.73 33.12 12.67L44.1 15.1L42.93 21.31C40.41 20.89 38.13 20.59 36.09 20.41C34.11 20.23 32.04 20.11 29.88 20.05H25.92L35.73 24.64C34.89 27.82 33.87 30.79 32.67 33.55C31.53 36.25 30.24 38.86 28.8 41.38C30.18 43.6 31.35 45.07 32.31 45.79ZM117.72 0.789995C121.32 1.38999 124.26 2.59 126.54 4.39C128.88 6.13 130.05 8.11 130.05 10.33C130.05 10.99 129.9 11.65 129.6 12.31C129.3 12.97 128.82 13.48 128.16 13.84H142.02C143.16 11.56 144.18 9.34 145.08 7.18C146.04 4.96 146.76 2.8 147.24 0.699996C149.34 1.3 151.05 1.84 152.37 2.32C153.69 2.8 154.71 3.22 155.43 3.58C156.15 3.94 156.63 4.27 156.87 4.56999C157.17 4.86999 157.32 5.13999 157.32 5.38C157.32 6.04 157.05 6.55 156.51 6.91C156.03 7.21 155.13 7.42 153.81 7.54C152.61 8.68 151.29 9.76 149.85 10.78C148.47 11.8 147.09 12.82 145.71 13.84H158.22C159.96 11.5 161.13 9.94 161.73 9.15999C162.33 8.31999 162.78 7.89999 163.08 7.89999C163.56 7.89999 164.43 8.38 165.69 9.34C166.95 10.3 168.63 11.68 170.73 13.48C171.09 13.84 171.39 14.17 171.63 14.47C171.87 14.71 171.99 14.98 171.99 15.28C171.99 16 171.42 16.36 170.28 16.36H140.94V26.8H153.09C154.53 24.88 155.55 23.47 156.15 22.57C156.81 21.67 157.29 21.22 157.59 21.22C157.77 21.22 158.01 21.31 158.31 21.49C158.61 21.61 159 21.85 159.48 22.21C159.96 22.57 160.59 23.08 161.37 23.74C162.15 24.4 163.14 25.27 164.34 26.35C164.82 26.71 165.21 27.07 165.51 27.43C165.87 27.73 166.05 28.03 166.05 28.33C166.05 28.93 165.45 29.23 164.25 29.23H140.94V40.03H160.92C162.54 37.87 163.68 36.31 164.34 35.35C165.06 34.39 165.57 33.91 165.87 33.91C166.53 33.91 168.72 35.53 172.44 38.77C173.1 39.37 173.61 39.91 173.97 40.39C174.39 40.87 174.6 41.26 174.6 41.56C174.6 42.16 174 42.46 172.8 42.46H112.5C110.28 42.46 108.06 42.49 105.84 42.55C103.68 42.61 101.85 42.79 100.35 43.09L98.91 39.4C100.65 39.58 102.69 39.73 105.03 39.85C107.43 39.97 109.83 40.03 112.23 40.03H131.4V29.23H120.78C118.68 29.23 116.55 29.29 114.39 29.41C112.23 29.47 110.37 29.65 108.81 29.95L107.46 26.17C109.2 26.35 111.21 26.5 113.49 26.62C115.77 26.74 118.11 26.8 120.51 26.8H131.4V16.36H116.19C113.97 16.36 111.75 16.39 109.53 16.45C107.37 16.51 105.51 16.66 103.95 16.9L102.6 13.21C104.34 13.39 106.35 13.54 108.63 13.66C110.97 13.78 113.4 13.84 115.92 13.84H123.12C122.4 13.36 121.89 12.52 121.59 11.32C121.11 9.64 120.57 8.14 119.97 6.82C119.37 5.5 118.38 4.15 117 2.77C116.34 2.11 116.01 1.57 116.01 1.15C116.01 0.849996 116.25 0.699996 116.73 0.699996C117.15 0.699996 117.48 0.729996 117.72 0.789995ZM130.05 43.36C132.69 43.72 134.79 44.05 136.35 44.35C137.97 44.65 139.2 44.95 140.04 45.25C140.94 45.49 141.51 45.76 141.75 46.06C142.05 46.3 142.2 46.54 142.2 46.78C142.2 47.38 141.9 47.95 141.3 48.49C140.7 48.97 139.98 49.39 139.14 49.75C139.08 51.07 138.9 52.42 138.6 53.8H159.03C160.65 51.52 161.79 49.93 162.45 49.03C163.17 48.07 163.71 47.59 164.07 47.59C164.43 47.59 165.12 47.95 166.14 48.67C167.22 49.39 168.87 50.62 171.09 52.36C171.75 52.96 172.29 53.5 172.71 53.98C173.19 54.46 173.43 54.85 173.43 55.15C173.43 55.81 172.86 56.14 171.72 56.14H139.59C142.95 61.36 147.51 65.41 153.27 68.29C159.03 71.17 165.93 73.18 173.97 74.32C174.21 74.32 174.39 74.41 174.51 74.59C174.69 74.77 174.78 74.95 174.78 75.13C174.78 75.55 174.3 75.91 173.34 76.21C171.78 76.81 170.61 77.68 169.83 78.82C169.11 80.02 168.69 81.13 168.57 82.15C168.33 82.99 167.88 83.41 167.22 83.41C167.04 83.41 166.77 83.35 166.41 83.23C163.17 82.27 160.08 80.98 157.14 79.36C154.2 77.74 151.5 75.85 149.04 73.69C146.58 71.53 144.36 69.13 142.38 66.49C140.46 63.85 138.93 61.03 137.79 58.03C135.75 65.53 131.73 71.41 125.73 75.67C119.79 79.99 111.6 82.81 101.16 84.13C100.92 84.19 100.65 84.22 100.35 84.22C99.33 84.22 98.82 84.01 98.82 83.59C98.82 83.11 99.45 82.69 100.71 82.33C108.51 79.93 114.72 76.63 119.34 72.43C124.02 68.23 127.23 62.8 128.97 56.14H114.3C112.08 56.14 109.86 56.17 107.64 56.23C105.42 56.29 103.56 56.47 102.06 56.77L100.71 53.08C102.45 53.32 104.49 53.5 106.83 53.62C109.23 53.74 111.63 53.8 114.03 53.8H129.42C129.54 53.02 129.66 52.27 129.78 51.55C129.9 50.83 130.02 50.05 130.14 49.21V46.87C130.14 46.33 130.14 45.76 130.14 45.16C130.14 44.56 130.11 43.96 130.05 43.36ZM273.639 29.77L272.559 36.7L254.469 36.79C254.409 41.35 254.259 45.13 254.019 48.13C253.839 51.13 253.599 53.53 253.299 55.33C252.999 57.43 252.639 59.05 252.219 60.19H241.599C241.539 59.11 241.509 57.79 241.509 56.23C241.449 54.85 241.419 53.11 241.419 51.01C241.419 48.85 241.419 46.24 241.419 43.18V41.11C236.739 42.85 231.759 44.5 226.479 46.06C221.259 47.62 216.219 48.85 211.359 49.75C209.319 50.11 207.459 50.29 205.779 50.29C204.099 50.29 202.659 50.05 201.459 49.57C200.259 49.09 199.329 48.31 198.669 47.23C198.009 46.15 197.679 44.74 197.679 43V22.12C197.679 19.6 197.049 17.92 195.789 17.08C194.529 16.18 192.309 15.58 189.129 15.28L189.579 12.31L210.819 13.57V43.54C210.819 44.68 211.089 45.4 211.629 45.7C212.169 46 212.859 46.09 213.699 45.97C215.259 45.79 217.239 45.46 219.639 44.98C222.039 44.44 224.529 43.84 227.109 43.18C229.749 42.46 232.329 41.71 234.849 40.93C237.369 40.15 239.559 39.4 241.419 38.68V12.22C241.419 10.96 241.149 9.94 240.609 9.15999C240.069 8.38 239.349 7.75 238.449 7.27C237.609 6.73 236.649 6.34 235.569 6.1C234.549 5.86 233.529 5.65 232.509 5.47L233.229 2.49999L255.009 5.11C254.649 9.07 254.469 12.97 254.469 16.81V34.09C256.209 33.85 257.709 33.34 258.969 32.56C260.289 31.72 261.189 30.31 261.669 28.33L273.639 29.77ZM241.869 77.11C243.249 76.81 244.509 76.12 245.649 75.04C246.849 74.02 247.569 72.61 247.809 70.81L261.579 72.61L260.589 79.45C255.069 79.51 249.699 79.57 244.479 79.63C242.199 79.63 239.859 79.63 237.459 79.63C235.059 79.69 232.689 79.72 230.349 79.72C228.009 79.78 225.759 79.81 223.599 79.81C221.439 79.81 219.459 79.81 217.659 79.81C216.459 79.81 215.259 79.75 214.059 79.63C212.859 79.51 211.779 79.21 210.819 78.73C209.919 78.31 209.169 77.62 208.569 76.66C208.029 75.76 207.759 74.5 207.759 72.88V65.14C207.759 64.06 207.549 63.19 207.129 62.53C206.709 61.81 206.139 61.27 205.419 60.91C204.699 60.49 203.859 60.22 202.899 60.1C201.939 59.92 200.949 59.83 199.929 59.83L200.289 56.77L220.899 57.13C220.779 58.33 220.719 59.92 220.719 61.9C220.719 63.88 220.719 65.83 220.719 67.75V74.86C220.719 76.06 221.019 76.81 221.619 77.11C222.279 77.47 223.299 77.68 224.679 77.74C225.639 77.74 226.929 77.74 228.549 77.74C230.229 77.74 231.939 77.71 233.679 77.65C235.479 77.65 237.129 77.59 238.629 77.47C240.129 77.41 241.209 77.29 241.869 77.11ZM343.998 17.44C342.678 17.5 341.538 17.74 340.578 18.16C339.678 18.58 338.928 19.09 338.328 19.69C337.728 20.23 337.248 20.77 336.888 21.31C336.528 21.85 336.258 22.3 336.078 22.66C334.758 22.3 333.348 21.88 331.848 21.4C330.408 20.86 328.968 20.29 327.528 19.69C326.088 19.03 324.708 18.37 323.388 17.71C322.068 16.99 320.868 16.3 319.788 15.64L321.228 12.94C323.568 13.66 326.238 14.23 329.238 14.65C332.298 15.07 335.568 15.31 339.048 15.37C340.488 15.37 342.588 15.34 345.348 15.28C348.108 15.22 350.988 15.16 353.988 15.1C357.048 15.04 359.958 14.98 362.718 14.92C365.478 14.8 367.548 14.71 368.928 14.65C369.828 14.59 370.788 14.38 371.808 14.02C372.828 13.6 373.638 12.91 374.238 11.95L387.378 15.64C385.998 22.84 384.498 29.56 382.878 35.8C381.258 42.04 379.398 48.07 377.298 53.89L367.398 52.18C367.938 49.42 368.448 46.48 368.928 43.36C369.408 40.24 369.828 37.12 370.188 34C370.608 30.82 370.938 27.76 371.178 24.82C371.478 21.88 371.688 19.18 371.808 16.72C367.248 16.78 363.078 16.87 359.298 16.99C357.678 17.05 356.058 17.11 354.438 17.17C352.818 17.17 351.318 17.2 349.938 17.26C348.558 17.32 347.328 17.38 346.248 17.44C345.228 17.44 344.478 17.44 343.998 17.44ZM394.488 63.34L393.408 70.18C390.528 69.88 387.588 69.64 384.588 69.46C381.588 69.28 378.648 69.19 375.768 69.19C372.768 69.19 369.528 69.22 366.048 69.28C362.568 69.34 359.058 69.4 355.518 69.46C352.038 69.52 348.618 69.61 345.258 69.73C341.958 69.85 338.988 69.94 336.348 70C334.848 70.06 333.588 70.27 332.568 70.63C331.548 71.05 330.678 71.56 329.958 72.16C329.298 72.76 328.758 73.42 328.338 74.14C327.918 74.86 327.528 75.52 327.168 76.12C325.788 75.76 324.198 75.28 322.398 74.68C320.598 74.08 318.798 73.39 316.998 72.61C315.198 71.83 313.458 71.02 311.778 70.18C310.158 69.34 308.778 68.56 307.638 67.84L309.078 65.05C310.158 65.41 311.448 65.77 312.948 66.13C314.508 66.43 316.098 66.7 317.718 66.94C319.338 67.18 320.928 67.39 322.488 67.57C324.108 67.75 325.578 67.84 326.898 67.84H332.298V46.96C332.298 45.22 331.818 44.02 330.858 43.36C329.898 42.64 328.248 42.28 325.908 42.28L326.268 39.4L344.448 39.94V67.57L352.008 67.39V43.72C352.008 41.98 351.618 40.75 350.838 40.03C350.118 39.31 348.738 38.89 346.698 38.77L347.238 35.89L364.878 37.33L363.798 67.03L371.358 66.76C373.398 66.64 375.078 66.07 376.398 65.05C377.718 63.97 378.588 62.65 379.008 61.09L394.488 63.34ZM464.058 12.22C464.058 10.96 463.788 9.94 463.248 9.15999C462.708 8.38 462.018 7.75 461.178 7.27C460.338 6.73 459.378 6.34 458.298 6.1C457.278 5.86 456.258 5.65 455.238 5.47L455.868 2.49999L477.648 5.11C477.288 9.07 477.108 12.97 477.108 16.81V26.89C477.048 30.55 476.928 33.52 476.748 35.8C476.628 38.08 476.448 39.85 476.208 41.11C475.968 42.67 475.698 43.78 475.398 44.44H464.328C464.268 43.48 464.208 42.31 464.148 40.93C464.088 39.73 464.058 38.26 464.058 36.52C464.058 34.72 464.058 32.59 464.058 30.13V12.22ZM435.708 29.23C433.848 31.57 431.778 33.7 429.498 35.62C427.218 37.54 424.788 39.31 422.208 40.93C419.628 42.49 416.928 43.93 414.108 45.25C411.288 46.51 408.378 47.71 405.378 48.85L404.028 47.05C407.388 45.01 410.418 42.82 413.118 40.48C415.878 38.08 418.248 35.62 420.228 33.1C422.208 30.58 423.798 28.03 424.998 25.45C426.258 22.81 427.068 20.23 427.428 17.71C427.728 15.55 427.308 14.05 426.168 13.21C425.088 12.31 423.528 11.56 421.488 10.96L422.478 8.08L443.628 13.84C442.848 16.42 441.918 18.82 440.838 21.04C439.758 23.26 438.528 25.33 437.148 27.25C437.688 27.85 438.168 28.39 438.588 28.87C439.068 29.29 439.518 29.62 439.938 29.86C441.078 30.58 442.518 31.03 444.258 31.21C445.998 31.33 447.678 31.18 449.298 30.76L455.778 42.19L449.838 46.24L435.708 29.23ZM482.058 79.27C482.058 79.27 481.338 79.27 479.898 79.27C478.458 79.33 476.538 79.39 474.138 79.45C471.738 79.57 469.008 79.66 465.948 79.72C462.948 79.78 459.858 79.84 456.678 79.9C453.498 80.02 450.378 80.08 447.318 80.08C444.318 80.14 441.648 80.17 439.308 80.17C438.108 80.17 436.908 80.11 435.708 79.99C434.508 79.93 433.428 79.69 432.468 79.27C431.508 78.91 430.728 78.28 430.128 77.38C429.588 76.54 429.318 75.31 429.318 73.69V69.55C429.318 67.57 428.688 66.22 427.428 65.5C426.228 64.72 424.818 64.3 423.198 64.24L423.648 61.54L440.298 62.44C440.598 62.8 441.228 63.13 442.188 63.43C443.148 63.67 444.408 63.79 445.968 63.79C446.628 63.79 447.678 63.79 449.118 63.79C450.618 63.73 452.178 63.7 453.798 63.7C455.418 63.64 456.948 63.61 458.388 63.61C459.888 63.55 460.998 63.49 461.718 63.43C462.558 63.37 463.158 63.19 463.518 62.89C463.938 62.59 464.148 62.02 464.148 61.18L464.058 52.45C460.878 52.45 457.908 52.48 455.148 52.54C452.808 52.6 450.528 52.66 448.308 52.72C446.148 52.72 444.708 52.75 443.988 52.81C441.948 52.93 440.418 53.47 439.398 54.43C438.378 55.33 437.628 56.23 437.148 57.13C434.928 56.53 432.618 55.75 430.218 54.79C427.818 53.77 425.628 52.75 423.648 51.73L424.548 49.48C426.948 50.08 429.498 50.44 432.198 50.56C434.958 50.68 437.838 50.74 440.838 50.74C442.458 50.74 444.138 50.74 445.878 50.74C447.678 50.68 449.448 50.65 451.188 50.65C452.928 50.59 454.608 50.53 456.228 50.47C457.908 50.41 459.438 50.35 460.818 50.29C461.778 50.23 462.738 50.02 463.698 49.66C464.718 49.24 465.528 48.58 466.128 47.68L477.918 49.93L476.028 60.91L478.998 61.54L478.278 65.23L442.368 65.95V75.13C442.368 76.33 442.608 77.11 443.088 77.47C443.628 77.89 444.708 78.1 446.328 78.1C447.288 78.1 448.458 78.07 449.838 78.01C451.278 78.01 452.778 77.98 454.338 77.92C455.898 77.86 457.458 77.77 459.018 77.65C460.638 77.59 462.138 77.47 463.518 77.29C465.018 77.11 466.278 76.36 467.298 75.04C468.318 73.72 468.978 72.28 469.278 70.72L483.048 72.43L482.058 79.27Z" fill="#333333"/>
</svg>
